<svg xmlns="http://www.w3.org/2000/svg">
  <symbol id="icon-search" viewBox="0 0 50 50">
    <path d="M 21 3 C 11.622998 3 4 10.623005 4 20 C 4 29.376995 11.622998 37 21 37 C 24.712383 37 28.139151 35.791079 30.9375 33.765625 L 44.085938 46.914062 L 46.914062 44.085938 L 33.886719 31.058594 C 36.443536 28.083 38 24.223631 38 20 C 38 10.623005 30.377002 3 21 3 z M 21 5 C 29.296122 5 36 11.703883 36 20 C 36 28.296117 29.296122 35 21 35 C 12.703878 35 6 28.296117 6 20 C 6 11.703883 12.703878 5 21 5 z"/>
  </symbol>
  <symbol id="icon-sort" viewBox="0 0 24 24" fill="none">
    <path d="M4 6H20M7 12H17M11 18H13" stroke="#292929" stroke-linecap="round" stroke-linejoin="round" stroke-width="2" />
  </symbol>
  <symbol id="triangle" viewBox="0 0 386.257 386.257">
    <polygon points="0,96.879 193.129,289.379 386.257,96.879" />
  </symbol>
  <symbol id="warning-icon" viewBox="0 0 554.2 554.199">
    <path d="M538.5,386.199L356.5,70.8c-16.4-28.4-46.7-45.9-79.501-45.9c-32.8,0-63.1,17.5-79.5,45.9L12.3,391.6
		c-16.4,28.4-16.4,63.4,0,91.8C28.7,511.8,59,529.3,91.8,529.3H462.2c0.101,0,0.2,0,0.2,0c50.7,0,91.8-41.101,91.8-91.8
		C554.2,418.5,548.4,400.8,538.5,386.199z M316.3,416.899c0,21.7-16.7,38.3-39.2,38.3s-39.2-16.6-39.2-38.3V416
		c0-21.601,16.7-38.301,39.2-38.301S316.3,394.3,316.3,416V416.899z M317.2,158.7L297.8,328.1c-1.3,12.2-9.4,19.8-20.7,19.8
		s-19.4-7.7-20.7-19.8L237,158.6c-1.3-13.1,5.801-23,18-23H299.1C311.3,135.7,318.5,145.6,317.2,158.7z"/>
    <symbol id="trash-can">
      <path d="M36.335,5.668h-8.167V1.5c0-0.828-0.672-1.5-1.5-1.5h-12c-0.828,0-1.5,0.672-1.5,1.5v4.168H5.001c-1.104,0-2,0.896-2,2
		s0.896,2,2,2h2.001v29.168c0,1.381,1.119,2.5,2.5,2.5h22.332c1.381,0,2.5-1.119,2.5-2.5V9.668h2.001c1.104,0,2-0.896,2-2
		S37.438,5.668,36.335,5.668z M14.168,35.67c0,0.828-0.672,1.5-1.5,1.5s-1.5-0.672-1.5-1.5v-21c0-0.828,0.672-1.5,1.5-1.5
		s1.5,0.672,1.5,1.5V35.67z M22.168,35.67c0,0.828-0.672,1.5-1.5,1.5s-1.5-0.672-1.5-1.5v-21c0-0.828,0.672-1.5,1.5-1.5
		s1.5,0.672,1.5,1.5V35.67z M25.168,5.668h-9V3h9V5.668z M30.168,35.67c0,0.828-0.672,1.5-1.5,1.5s-1.5-0.672-1.5-1.5v-21
		c0-0.828,0.672-1.5,1.5-1.5s1.5,0.672,1.5,1.5V35.67z"/>
    </symbol>
    <symbol id="pen-icon">
      <path fill-rule="evenodd" clip-rule="evenodd" d="M3.25 22C3.25 21.5858 3.58579 21.25 4 21.25H20C20.4142 21.25 20.75 21.5858 20.75 22C20.75 22.4142 20.4142 22.75 20 22.75H4C3.58579 22.75 3.25 22.4142 3.25 22Z" fill="#1C274C"/>
      <path d="M11.5201 14.929L11.5201 14.9289L17.4368 9.01225C16.6315 8.6771 15.6777 8.12656 14.7757 7.22455C13.8736 6.32238 13.323 5.36846 12.9879 4.56312L7.07106 10.4799L7.07101 10.48C6.60932 10.9417 6.37846 11.1725 6.17992 11.4271C5.94571 11.7273 5.74491 12.0522 5.58107 12.396C5.44219 12.6874 5.33894 12.9972 5.13245 13.6167L4.04356 16.8833C3.94194 17.1882 4.02128 17.5243 4.2485 17.7515C4.47573 17.9787 4.81182 18.0581 5.11667 17.9564L8.38334 16.8676C9.00281 16.6611 9.31256 16.5578 9.60398 16.4189C9.94775 16.2551 10.2727 16.0543 10.5729 15.8201C10.8275 15.6215 11.0584 15.3907 11.5201 14.929Z" fill="#1C274C"/>
      <path d="M19.0786 7.37044C20.3071 6.14188 20.3071 4.14999 19.0786 2.92142C17.85 1.69286 15.8581 1.69286 14.6296 2.92142L13.9199 3.63105C13.9296 3.6604 13.9397 3.69015 13.9502 3.72028C14.2103 4.47 14.701 5.45281 15.6243 6.37602C16.5475 7.29923 17.5303 7.78999 18.28 8.05009C18.31 8.0605 18.3396 8.07054 18.3688 8.08021L19.0786 7.37044Z" fill="#1C274C"/>
    </symbol>
  </svg>